<mxfile host="app.diagrams.net" agent="Mozilla/5.0 (Windows NT 10.0; Win64; x64) AppleWebKit/537.36 (KHTML, like Gecko) Chrome/136.0.0.0 Safari/537.36" version="27.0.9">
  <diagram name="Страница — 1" id="I9y1jvOB0geDTvPqi0MK">
    <mxGraphModel dx="2564" dy="1110" grid="1" gridSize="10" guides="1" tooltips="1" connect="1" arrows="1" fold="1" page="1" pageScale="1" pageWidth="827" pageHeight="1169" math="0" shadow="0">
      <root>
        <mxCell id="0" />
        <mxCell id="1" parent="0" />
        <mxCell id="l_zz-gCeXKlEZNiv7hA6-28" style="edgeStyle=orthogonalEdgeStyle;rounded=0;orthogonalLoop=1;jettySize=auto;html=1;entryX=0.5;entryY=0;entryDx=0;entryDy=0;" edge="1" parent="1" source="l_zz-gCeXKlEZNiv7hA6-1" target="l_zz-gCeXKlEZNiv7hA6-20">
          <mxGeometry relative="1" as="geometry" />
        </mxCell>
        <mxCell id="l_zz-gCeXKlEZNiv7hA6-1" value="Main&lt;div&gt;&lt;br&gt;&lt;/div&gt;" style="swimlane;fontStyle=1;align=center;verticalAlign=top;childLayout=stackLayout;horizontal=1;startSize=26;horizontalStack=0;resizeParent=1;resizeParentMax=0;resizeLast=0;collapsible=1;marginBottom=0;whiteSpace=wrap;html=1;" vertex="1" parent="1">
          <mxGeometry x="20" y="80" width="160" height="54" as="geometry" />
        </mxCell>
        <mxCell id="l_zz-gCeXKlEZNiv7hA6-3" value="" style="line;strokeWidth=1;fillColor=none;align=left;verticalAlign=middle;spacingTop=-1;spacingLeft=3;spacingRight=3;rotatable=0;labelPosition=right;points=[];portConstraint=eastwest;strokeColor=inherit;" vertex="1" parent="l_zz-gCeXKlEZNiv7hA6-1">
          <mxGeometry y="26" width="160" height="28" as="geometry" />
        </mxCell>
        <mxCell id="l_zz-gCeXKlEZNiv7hA6-7" value="&lt;div&gt;IVideoProcessorFactory&lt;/div&gt;" style="swimlane;fontStyle=1;align=center;verticalAlign=top;childLayout=stackLayout;horizontal=1;startSize=26;horizontalStack=0;resizeParent=1;resizeParentMax=0;resizeLast=0;collapsible=1;marginBottom=0;whiteSpace=wrap;html=1;" vertex="1" parent="1">
          <mxGeometry x="80" y="400" width="160" height="60" as="geometry">
            <mxRectangle x="-40" y="400" width="170" height="30" as="alternateBounds" />
          </mxGeometry>
        </mxCell>
        <mxCell id="l_zz-gCeXKlEZNiv7hA6-9" value="" style="line;strokeWidth=1;fillColor=none;align=left;verticalAlign=middle;spacingTop=-1;spacingLeft=3;spacingRight=3;rotatable=0;labelPosition=right;points=[];portConstraint=eastwest;strokeColor=inherit;" vertex="1" parent="l_zz-gCeXKlEZNiv7hA6-7">
          <mxGeometry y="26" width="160" height="8" as="geometry" />
        </mxCell>
        <mxCell id="l_zz-gCeXKlEZNiv7hA6-10" value="+ makeSvc()" style="text;strokeColor=none;fillColor=none;align=left;verticalAlign=top;spacingLeft=4;spacingRight=4;overflow=hidden;rotatable=0;points=[[0,0.5],[1,0.5]];portConstraint=eastwest;whiteSpace=wrap;html=1;" vertex="1" parent="l_zz-gCeXKlEZNiv7hA6-7">
          <mxGeometry y="34" width="160" height="26" as="geometry" />
        </mxCell>
        <mxCell id="l_zz-gCeXKlEZNiv7hA6-16" value="&lt;div&gt;IVideoProcessor&lt;/div&gt;" style="swimlane;fontStyle=1;align=center;verticalAlign=top;childLayout=stackLayout;horizontal=1;startSize=26;horizontalStack=0;resizeParent=1;resizeParentMax=0;resizeLast=0;collapsible=1;marginBottom=0;whiteSpace=wrap;html=1;" vertex="1" parent="1">
          <mxGeometry x="440" y="190" width="180" height="110" as="geometry" />
        </mxCell>
        <mxCell id="l_zz-gCeXKlEZNiv7hA6-18" value="" style="line;strokeWidth=1;fillColor=none;align=left;verticalAlign=middle;spacingTop=-1;spacingLeft=3;spacingRight=3;rotatable=0;labelPosition=right;points=[];portConstraint=eastwest;strokeColor=inherit;" vertex="1" parent="l_zz-gCeXKlEZNiv7hA6-16">
          <mxGeometry y="26" width="180" height="8" as="geometry" />
        </mxCell>
        <mxCell id="l_zz-gCeXKlEZNiv7hA6-19" value="+ init" style="text;strokeColor=none;fillColor=none;align=left;verticalAlign=top;spacingLeft=4;spacingRight=4;overflow=hidden;rotatable=0;points=[[0,0.5],[1,0.5]];portConstraint=eastwest;whiteSpace=wrap;html=1;" vertex="1" parent="l_zz-gCeXKlEZNiv7hA6-16">
          <mxGeometry y="34" width="180" height="26" as="geometry" />
        </mxCell>
        <mxCell id="l_zz-gCeXKlEZNiv7hA6-180" value="+ queue&amp;lt;Frame&amp;gt; getFrames(uint count)" style="text;strokeColor=none;fillColor=none;align=left;verticalAlign=top;spacingLeft=4;spacingRight=4;overflow=hidden;rotatable=0;points=[[0,0.5],[1,0.5]];portConstraint=eastwest;whiteSpace=wrap;html=1;" vertex="1" parent="l_zz-gCeXKlEZNiv7hA6-16">
          <mxGeometry y="60" width="180" height="50" as="geometry" />
        </mxCell>
        <mxCell id="l_zz-gCeXKlEZNiv7hA6-93" style="edgeStyle=orthogonalEdgeStyle;rounded=0;orthogonalLoop=1;jettySize=auto;html=1;entryX=0.5;entryY=0;entryDx=0;entryDy=0;" edge="1" parent="1" source="l_zz-gCeXKlEZNiv7hA6-20" target="l_zz-gCeXKlEZNiv7hA6-7">
          <mxGeometry relative="1" as="geometry" />
        </mxCell>
        <mxCell id="l_zz-gCeXKlEZNiv7hA6-94" style="edgeStyle=orthogonalEdgeStyle;rounded=0;orthogonalLoop=1;jettySize=auto;html=1;entryX=0.25;entryY=0;entryDx=0;entryDy=0;" edge="1" parent="1" source="l_zz-gCeXKlEZNiv7hA6-20" target="l_zz-gCeXKlEZNiv7hA6-38">
          <mxGeometry relative="1" as="geometry">
            <Array as="points">
              <mxPoint x="60" y="407" />
              <mxPoint x="40" y="407" />
            </Array>
          </mxGeometry>
        </mxCell>
        <mxCell id="l_zz-gCeXKlEZNiv7hA6-95" style="edgeStyle=orthogonalEdgeStyle;rounded=0;orthogonalLoop=1;jettySize=auto;html=1;entryX=0.25;entryY=0;entryDx=0;entryDy=0;" edge="1" parent="1" source="l_zz-gCeXKlEZNiv7hA6-20" target="l_zz-gCeXKlEZNiv7hA6-29">
          <mxGeometry relative="1" as="geometry">
            <Array as="points">
              <mxPoint x="50" y="390" />
              <mxPoint x="-30" y="390" />
            </Array>
          </mxGeometry>
        </mxCell>
        <mxCell id="l_zz-gCeXKlEZNiv7hA6-172" style="edgeStyle=orthogonalEdgeStyle;rounded=0;orthogonalLoop=1;jettySize=auto;html=1;entryX=0.5;entryY=0;entryDx=0;entryDy=0;" edge="1" parent="1" source="l_zz-gCeXKlEZNiv7hA6-20" target="l_zz-gCeXKlEZNiv7hA6-110">
          <mxGeometry relative="1" as="geometry">
            <Array as="points">
              <mxPoint x="360" y="272" />
              <mxPoint x="360" y="60" />
              <mxPoint x="780" y="60" />
            </Array>
          </mxGeometry>
        </mxCell>
        <mxCell id="l_zz-gCeXKlEZNiv7hA6-173" style="edgeStyle=orthogonalEdgeStyle;rounded=0;orthogonalLoop=1;jettySize=auto;html=1;entryX=0.5;entryY=0;entryDx=0;entryDy=0;" edge="1" parent="1" source="l_zz-gCeXKlEZNiv7hA6-20" target="l_zz-gCeXKlEZNiv7hA6-118">
          <mxGeometry relative="1" as="geometry">
            <Array as="points">
              <mxPoint x="380" y="272" />
              <mxPoint x="380" y="80" />
              <mxPoint x="1040" y="80" />
            </Array>
          </mxGeometry>
        </mxCell>
        <mxCell id="l_zz-gCeXKlEZNiv7hA6-174" style="edgeStyle=orthogonalEdgeStyle;rounded=0;orthogonalLoop=1;jettySize=auto;html=1;entryX=0.5;entryY=0;entryDx=0;entryDy=0;" edge="1" parent="1" source="l_zz-gCeXKlEZNiv7hA6-20" target="l_zz-gCeXKlEZNiv7hA6-114">
          <mxGeometry relative="1" as="geometry">
            <Array as="points">
              <mxPoint x="410" y="272" />
              <mxPoint x="410" y="100" />
              <mxPoint x="1260" y="100" />
            </Array>
          </mxGeometry>
        </mxCell>
        <mxCell id="l_zz-gCeXKlEZNiv7hA6-20" value="Application&lt;div&gt;&lt;br&gt;&lt;/div&gt;" style="swimlane;fontStyle=1;align=center;verticalAlign=top;childLayout=stackLayout;horizontal=1;startSize=26;horizontalStack=0;resizeParent=1;resizeParentMax=0;resizeLast=0;collapsible=1;marginBottom=0;whiteSpace=wrap;html=1;" vertex="1" parent="1">
          <mxGeometry x="40" y="190" width="160" height="164" as="geometry" />
        </mxCell>
        <mxCell id="l_zz-gCeXKlEZNiv7hA6-21" value="- IVideoProcessorFactory&lt;div&gt;-&lt;/div&gt;" style="text;strokeColor=none;fillColor=none;align=left;verticalAlign=top;spacingLeft=4;spacingRight=4;overflow=hidden;rotatable=0;points=[[0,0.5],[1,0.5]];portConstraint=eastwest;whiteSpace=wrap;html=1;" vertex="1" parent="l_zz-gCeXKlEZNiv7hA6-20">
          <mxGeometry y="26" width="160" height="26" as="geometry" />
        </mxCell>
        <mxCell id="l_zz-gCeXKlEZNiv7hA6-24" value="- IFrameHandlerFactory" style="text;strokeColor=none;fillColor=none;align=left;verticalAlign=top;spacingLeft=4;spacingRight=4;overflow=hidden;rotatable=0;points=[[0,0.5],[1,0.5]];portConstraint=eastwest;whiteSpace=wrap;html=1;" vertex="1" parent="l_zz-gCeXKlEZNiv7hA6-20">
          <mxGeometry y="52" width="160" height="26" as="geometry" />
        </mxCell>
        <mxCell id="l_zz-gCeXKlEZNiv7hA6-25" value="- IWritterFactory" style="text;strokeColor=none;fillColor=none;align=left;verticalAlign=top;spacingLeft=4;spacingRight=4;overflow=hidden;rotatable=0;points=[[0,0.5],[1,0.5]];portConstraint=eastwest;whiteSpace=wrap;html=1;" vertex="1" parent="l_zz-gCeXKlEZNiv7hA6-20">
          <mxGeometry y="78" width="160" height="26" as="geometry" />
        </mxCell>
        <mxCell id="l_zz-gCeXKlEZNiv7hA6-26" value="&lt;div&gt;- IConfiguartionFactory&lt;/div&gt;" style="text;strokeColor=none;fillColor=none;align=left;verticalAlign=top;spacingLeft=4;spacingRight=4;overflow=hidden;rotatable=0;points=[[0,0.5],[1,0.5]];portConstraint=eastwest;whiteSpace=wrap;html=1;" vertex="1" parent="l_zz-gCeXKlEZNiv7hA6-20">
          <mxGeometry y="104" width="160" height="26" as="geometry" />
        </mxCell>
        <mxCell id="l_zz-gCeXKlEZNiv7hA6-22" value="" style="line;strokeWidth=1;fillColor=none;align=left;verticalAlign=middle;spacingTop=-1;spacingLeft=3;spacingRight=3;rotatable=0;labelPosition=right;points=[];portConstraint=eastwest;strokeColor=inherit;" vertex="1" parent="l_zz-gCeXKlEZNiv7hA6-20">
          <mxGeometry y="130" width="160" height="8" as="geometry" />
        </mxCell>
        <mxCell id="l_zz-gCeXKlEZNiv7hA6-23" value="+ run()" style="text;strokeColor=none;fillColor=none;align=left;verticalAlign=top;spacingLeft=4;spacingRight=4;overflow=hidden;rotatable=0;points=[[0,0.5],[1,0.5]];portConstraint=eastwest;whiteSpace=wrap;html=1;" vertex="1" parent="l_zz-gCeXKlEZNiv7hA6-20">
          <mxGeometry y="138" width="160" height="26" as="geometry" />
        </mxCell>
        <mxCell id="l_zz-gCeXKlEZNiv7hA6-29" value="&lt;span style=&quot;text-align: left;&quot;&gt;IWritterFactory&lt;/span&gt;" style="swimlane;fontStyle=1;align=center;verticalAlign=top;childLayout=stackLayout;horizontal=1;startSize=26;horizontalStack=0;resizeParent=1;resizeParentMax=0;resizeLast=0;collapsible=1;marginBottom=0;whiteSpace=wrap;html=1;" vertex="1" parent="1">
          <mxGeometry x="-70" y="520" width="160" height="60" as="geometry" />
        </mxCell>
        <mxCell id="l_zz-gCeXKlEZNiv7hA6-30" value="" style="line;strokeWidth=1;fillColor=none;align=left;verticalAlign=middle;spacingTop=-1;spacingLeft=3;spacingRight=3;rotatable=0;labelPosition=right;points=[];portConstraint=eastwest;strokeColor=inherit;" vertex="1" parent="l_zz-gCeXKlEZNiv7hA6-29">
          <mxGeometry y="26" width="160" height="8" as="geometry" />
        </mxCell>
        <mxCell id="l_zz-gCeXKlEZNiv7hA6-31" value="+ makeSvc()" style="text;strokeColor=none;fillColor=none;align=left;verticalAlign=top;spacingLeft=4;spacingRight=4;overflow=hidden;rotatable=0;points=[[0,0.5],[1,0.5]];portConstraint=eastwest;whiteSpace=wrap;html=1;" vertex="1" parent="l_zz-gCeXKlEZNiv7hA6-29">
          <mxGeometry y="34" width="160" height="26" as="geometry" />
        </mxCell>
        <mxCell id="l_zz-gCeXKlEZNiv7hA6-32" value="&lt;span style=&quot;text-align: left;&quot;&gt;IConfiguartionFactory&lt;/span&gt;" style="swimlane;fontStyle=1;align=center;verticalAlign=top;childLayout=stackLayout;horizontal=1;startSize=26;horizontalStack=0;resizeParent=1;resizeParentMax=0;resizeLast=0;collapsible=1;marginBottom=0;whiteSpace=wrap;html=1;" vertex="1" parent="1">
          <mxGeometry x="-150" y="580" width="160" height="60" as="geometry" />
        </mxCell>
        <mxCell id="l_zz-gCeXKlEZNiv7hA6-33" value="" style="line;strokeWidth=1;fillColor=none;align=left;verticalAlign=middle;spacingTop=-1;spacingLeft=3;spacingRight=3;rotatable=0;labelPosition=right;points=[];portConstraint=eastwest;strokeColor=inherit;" vertex="1" parent="l_zz-gCeXKlEZNiv7hA6-32">
          <mxGeometry y="26" width="160" height="8" as="geometry" />
        </mxCell>
        <mxCell id="l_zz-gCeXKlEZNiv7hA6-34" value="+ makeSvc()" style="text;strokeColor=none;fillColor=none;align=left;verticalAlign=top;spacingLeft=4;spacingRight=4;overflow=hidden;rotatable=0;points=[[0,0.5],[1,0.5]];portConstraint=eastwest;whiteSpace=wrap;html=1;" vertex="1" parent="l_zz-gCeXKlEZNiv7hA6-32">
          <mxGeometry y="34" width="160" height="26" as="geometry" />
        </mxCell>
        <mxCell id="l_zz-gCeXKlEZNiv7hA6-38" value="&lt;div&gt;IFrameHandlerFactory&lt;/div&gt;" style="swimlane;fontStyle=1;align=center;verticalAlign=top;childLayout=stackLayout;horizontal=1;startSize=26;horizontalStack=0;resizeParent=1;resizeParentMax=0;resizeLast=0;collapsible=1;marginBottom=0;whiteSpace=wrap;html=1;" vertex="1" parent="1">
          <mxGeometry y="460" width="160" height="60" as="geometry" />
        </mxCell>
        <mxCell id="l_zz-gCeXKlEZNiv7hA6-39" value="" style="line;strokeWidth=1;fillColor=none;align=left;verticalAlign=middle;spacingTop=-1;spacingLeft=3;spacingRight=3;rotatable=0;labelPosition=right;points=[];portConstraint=eastwest;strokeColor=inherit;" vertex="1" parent="l_zz-gCeXKlEZNiv7hA6-38">
          <mxGeometry y="26" width="160" height="8" as="geometry" />
        </mxCell>
        <mxCell id="l_zz-gCeXKlEZNiv7hA6-40" value="+ makeSvc()" style="text;strokeColor=none;fillColor=none;align=left;verticalAlign=top;spacingLeft=4;spacingRight=4;overflow=hidden;rotatable=0;points=[[0,0.5],[1,0.5]];portConstraint=eastwest;whiteSpace=wrap;html=1;" vertex="1" parent="l_zz-gCeXKlEZNiv7hA6-38">
          <mxGeometry y="34" width="160" height="26" as="geometry" />
        </mxCell>
        <mxCell id="l_zz-gCeXKlEZNiv7hA6-101" style="edgeStyle=orthogonalEdgeStyle;rounded=0;orthogonalLoop=1;jettySize=auto;html=1;entryX=1;entryY=0.5;entryDx=0;entryDy=0;" edge="1" parent="1" source="l_zz-gCeXKlEZNiv7hA6-49" target="l_zz-gCeXKlEZNiv7hA6-7">
          <mxGeometry relative="1" as="geometry" />
        </mxCell>
        <mxCell id="l_zz-gCeXKlEZNiv7hA6-49" value="&lt;div&gt;VideoProcessorFactory Impl&lt;/div&gt;" style="swimlane;fontStyle=1;align=center;verticalAlign=top;childLayout=stackLayout;horizontal=1;startSize=26;horizontalStack=0;resizeParent=1;resizeParentMax=0;resizeLast=0;collapsible=1;marginBottom=0;whiteSpace=wrap;html=1;" vertex="1" parent="1">
          <mxGeometry x="309" y="552" width="170" height="60" as="geometry" />
        </mxCell>
        <mxCell id="l_zz-gCeXKlEZNiv7hA6-50" value="" style="line;strokeWidth=1;fillColor=none;align=left;verticalAlign=middle;spacingTop=-1;spacingLeft=3;spacingRight=3;rotatable=0;labelPosition=right;points=[];portConstraint=eastwest;strokeColor=inherit;" vertex="1" parent="l_zz-gCeXKlEZNiv7hA6-49">
          <mxGeometry y="26" width="170" height="8" as="geometry" />
        </mxCell>
        <mxCell id="l_zz-gCeXKlEZNiv7hA6-51" value="+ makeSvc()" style="text;strokeColor=none;fillColor=none;align=left;verticalAlign=top;spacingLeft=4;spacingRight=4;overflow=hidden;rotatable=0;points=[[0,0.5],[1,0.5]];portConstraint=eastwest;whiteSpace=wrap;html=1;" vertex="1" parent="l_zz-gCeXKlEZNiv7hA6-49">
          <mxGeometry y="34" width="170" height="26" as="geometry" />
        </mxCell>
        <mxCell id="l_zz-gCeXKlEZNiv7hA6-158" style="edgeStyle=orthogonalEdgeStyle;rounded=0;orthogonalLoop=1;jettySize=auto;html=1;entryX=0;entryY=0.5;entryDx=0;entryDy=0;" edge="1" parent="1" source="l_zz-gCeXKlEZNiv7hA6-53" target="l_zz-gCeXKlEZNiv7hA6-76">
          <mxGeometry relative="1" as="geometry" />
        </mxCell>
        <mxCell id="l_zz-gCeXKlEZNiv7hA6-53" value="&lt;div&gt;&lt;span style=&quot;background-color: transparent; color: light-dark(rgb(0, 0, 0), rgb(255, 255, 255));&quot;&gt;FrameHandlerFactory Impl&lt;/span&gt;&lt;/div&gt;" style="swimlane;fontStyle=1;align=center;verticalAlign=top;childLayout=stackLayout;horizontal=1;startSize=26;horizontalStack=0;resizeParent=1;resizeParentMax=0;resizeLast=0;collapsible=1;marginBottom=0;whiteSpace=wrap;html=1;" vertex="1" parent="1">
          <mxGeometry x="390" y="640" width="180" height="60" as="geometry" />
        </mxCell>
        <mxCell id="l_zz-gCeXKlEZNiv7hA6-54" value="" style="line;strokeWidth=1;fillColor=none;align=left;verticalAlign=middle;spacingTop=-1;spacingLeft=3;spacingRight=3;rotatable=0;labelPosition=right;points=[];portConstraint=eastwest;strokeColor=inherit;" vertex="1" parent="l_zz-gCeXKlEZNiv7hA6-53">
          <mxGeometry y="26" width="180" height="8" as="geometry" />
        </mxCell>
        <mxCell id="l_zz-gCeXKlEZNiv7hA6-55" value="+ makeSvc()" style="text;strokeColor=none;fillColor=none;align=left;verticalAlign=top;spacingLeft=4;spacingRight=4;overflow=hidden;rotatable=0;points=[[0,0.5],[1,0.5]];portConstraint=eastwest;whiteSpace=wrap;html=1;" vertex="1" parent="l_zz-gCeXKlEZNiv7hA6-53">
          <mxGeometry y="34" width="180" height="26" as="geometry" />
        </mxCell>
        <mxCell id="l_zz-gCeXKlEZNiv7hA6-103" style="edgeStyle=orthogonalEdgeStyle;rounded=0;orthogonalLoop=1;jettySize=auto;html=1;entryX=1;entryY=0.5;entryDx=0;entryDy=0;" edge="1" parent="1" source="l_zz-gCeXKlEZNiv7hA6-60" target="l_zz-gCeXKlEZNiv7hA6-29">
          <mxGeometry relative="1" as="geometry" />
        </mxCell>
        <mxCell id="l_zz-gCeXKlEZNiv7hA6-107" style="edgeStyle=orthogonalEdgeStyle;rounded=0;orthogonalLoop=1;jettySize=auto;html=1;entryX=0;entryY=0.5;entryDx=0;entryDy=0;" edge="1" parent="1" source="l_zz-gCeXKlEZNiv7hA6-60" target="l_zz-gCeXKlEZNiv7hA6-80">
          <mxGeometry relative="1" as="geometry" />
        </mxCell>
        <mxCell id="l_zz-gCeXKlEZNiv7hA6-60" value="&lt;span style=&quot;text-align: left;&quot;&gt;WritterFactory Impl&lt;/span&gt;" style="swimlane;fontStyle=1;align=center;verticalAlign=top;childLayout=stackLayout;horizontal=1;startSize=26;horizontalStack=0;resizeParent=1;resizeParentMax=0;resizeLast=0;collapsible=1;marginBottom=0;whiteSpace=wrap;html=1;" vertex="1" parent="1">
          <mxGeometry x="319" y="850" width="160" height="60" as="geometry" />
        </mxCell>
        <mxCell id="l_zz-gCeXKlEZNiv7hA6-61" value="" style="line;strokeWidth=1;fillColor=none;align=left;verticalAlign=middle;spacingTop=-1;spacingLeft=3;spacingRight=3;rotatable=0;labelPosition=right;points=[];portConstraint=eastwest;strokeColor=inherit;" vertex="1" parent="l_zz-gCeXKlEZNiv7hA6-60">
          <mxGeometry y="26" width="160" height="8" as="geometry" />
        </mxCell>
        <mxCell id="l_zz-gCeXKlEZNiv7hA6-62" value="+ makeSvc()" style="text;strokeColor=none;fillColor=none;align=left;verticalAlign=top;spacingLeft=4;spacingRight=4;overflow=hidden;rotatable=0;points=[[0,0.5],[1,0.5]];portConstraint=eastwest;whiteSpace=wrap;html=1;" vertex="1" parent="l_zz-gCeXKlEZNiv7hA6-60">
          <mxGeometry y="34" width="160" height="26" as="geometry" />
        </mxCell>
        <mxCell id="l_zz-gCeXKlEZNiv7hA6-155" style="edgeStyle=orthogonalEdgeStyle;rounded=0;orthogonalLoop=1;jettySize=auto;html=1;" edge="1" parent="1" source="l_zz-gCeXKlEZNiv7hA6-66">
          <mxGeometry relative="1" as="geometry">
            <mxPoint x="1030" y="780" as="targetPoint" />
          </mxGeometry>
        </mxCell>
        <mxCell id="l_zz-gCeXKlEZNiv7hA6-66" value="&lt;span style=&quot;text-align: left;&quot;&gt;ConfiguartionFactory Imp&lt;/span&gt;" style="swimlane;fontStyle=1;align=center;verticalAlign=top;childLayout=stackLayout;horizontal=1;startSize=26;horizontalStack=0;resizeParent=1;resizeParentMax=0;resizeLast=0;collapsible=1;marginBottom=0;whiteSpace=wrap;html=1;" vertex="1" parent="1">
          <mxGeometry x="300" y="990" width="160" height="60" as="geometry" />
        </mxCell>
        <mxCell id="l_zz-gCeXKlEZNiv7hA6-67" value="" style="line;strokeWidth=1;fillColor=none;align=left;verticalAlign=middle;spacingTop=-1;spacingLeft=3;spacingRight=3;rotatable=0;labelPosition=right;points=[];portConstraint=eastwest;strokeColor=inherit;" vertex="1" parent="l_zz-gCeXKlEZNiv7hA6-66">
          <mxGeometry y="26" width="160" height="8" as="geometry" />
        </mxCell>
        <mxCell id="l_zz-gCeXKlEZNiv7hA6-68" value="+ makeSvc()" style="text;strokeColor=none;fillColor=none;align=left;verticalAlign=top;spacingLeft=4;spacingRight=4;overflow=hidden;rotatable=0;points=[[0,0.5],[1,0.5]];portConstraint=eastwest;whiteSpace=wrap;html=1;" vertex="1" parent="l_zz-gCeXKlEZNiv7hA6-66">
          <mxGeometry y="34" width="160" height="26" as="geometry" />
        </mxCell>
        <mxCell id="l_zz-gCeXKlEZNiv7hA6-72" value="&lt;div&gt;VideoProcessorImpl&lt;/div&gt;" style="swimlane;fontStyle=1;align=center;verticalAlign=top;childLayout=stackLayout;horizontal=1;startSize=26;horizontalStack=0;resizeParent=1;resizeParentMax=0;resizeLast=0;collapsible=1;marginBottom=0;whiteSpace=wrap;html=1;" vertex="1" parent="1">
          <mxGeometry x="550" y="578" width="160" height="34" as="geometry">
            <mxRectangle x="450" y="520" width="150" height="30" as="alternateBounds" />
          </mxGeometry>
        </mxCell>
        <mxCell id="l_zz-gCeXKlEZNiv7hA6-73" value="" style="line;strokeWidth=1;fillColor=none;align=left;verticalAlign=middle;spacingTop=-1;spacingLeft=3;spacingRight=3;rotatable=0;labelPosition=right;points=[];portConstraint=eastwest;strokeColor=inherit;" vertex="1" parent="l_zz-gCeXKlEZNiv7hA6-72">
          <mxGeometry y="26" width="160" height="8" as="geometry" />
        </mxCell>
        <mxCell id="l_zz-gCeXKlEZNiv7hA6-76" value="&lt;div&gt;&lt;span style=&quot;background-color: transparent; color: light-dark(rgb(0, 0, 0), rgb(255, 255, 255));&quot;&gt;FrameHandlerImp&lt;/span&gt;&lt;/div&gt;" style="swimlane;fontStyle=1;align=center;verticalAlign=top;childLayout=stackLayout;horizontal=1;startSize=26;horizontalStack=0;resizeParent=1;resizeParentMax=0;resizeLast=0;collapsible=1;marginBottom=0;whiteSpace=wrap;html=1;" vertex="1" parent="1">
          <mxGeometry x="640" y="638" width="160" height="34" as="geometry" />
        </mxCell>
        <mxCell id="l_zz-gCeXKlEZNiv7hA6-77" value="" style="line;strokeWidth=1;fillColor=none;align=left;verticalAlign=middle;spacingTop=-1;spacingLeft=3;spacingRight=3;rotatable=0;labelPosition=right;points=[];portConstraint=eastwest;strokeColor=inherit;" vertex="1" parent="l_zz-gCeXKlEZNiv7hA6-76">
          <mxGeometry y="26" width="160" height="8" as="geometry" />
        </mxCell>
        <mxCell id="l_zz-gCeXKlEZNiv7hA6-80" value="&lt;span style=&quot;text-align: left;&quot;&gt;WritterImpl&lt;/span&gt;" style="swimlane;fontStyle=1;align=center;verticalAlign=top;childLayout=stackLayout;horizontal=1;startSize=26;horizontalStack=0;resizeParent=1;resizeParentMax=0;resizeLast=0;collapsible=1;marginBottom=0;whiteSpace=wrap;html=1;" vertex="1" parent="1">
          <mxGeometry x="640" y="890" width="160" height="34" as="geometry" />
        </mxCell>
        <mxCell id="l_zz-gCeXKlEZNiv7hA6-81" value="" style="line;strokeWidth=1;fillColor=none;align=left;verticalAlign=middle;spacingTop=-1;spacingLeft=3;spacingRight=3;rotatable=0;labelPosition=right;points=[];portConstraint=eastwest;strokeColor=inherit;" vertex="1" parent="l_zz-gCeXKlEZNiv7hA6-80">
          <mxGeometry y="26" width="160" height="8" as="geometry" />
        </mxCell>
        <mxCell id="l_zz-gCeXKlEZNiv7hA6-84" value="&lt;span style=&quot;text-align: left;&quot;&gt;ConfiguartionImpl&lt;/span&gt;" style="swimlane;fontStyle=1;align=center;verticalAlign=top;childLayout=stackLayout;horizontal=1;startSize=26;horizontalStack=0;resizeParent=1;resizeParentMax=0;resizeLast=0;collapsible=1;marginBottom=0;whiteSpace=wrap;html=1;" vertex="1" parent="1">
          <mxGeometry x="930" y="748" width="160" height="34" as="geometry" />
        </mxCell>
        <mxCell id="l_zz-gCeXKlEZNiv7hA6-85" value="" style="line;strokeWidth=1;fillColor=none;align=left;verticalAlign=middle;spacingTop=-1;spacingLeft=3;spacingRight=3;rotatable=0;labelPosition=right;points=[];portConstraint=eastwest;strokeColor=inherit;" vertex="1" parent="l_zz-gCeXKlEZNiv7hA6-84">
          <mxGeometry y="26" width="160" height="8" as="geometry" />
        </mxCell>
        <mxCell id="l_zz-gCeXKlEZNiv7hA6-91" style="edgeStyle=orthogonalEdgeStyle;rounded=0;orthogonalLoop=1;jettySize=auto;html=1;entryX=0.5;entryY=0;entryDx=0;entryDy=0;" edge="1" parent="1" source="l_zz-gCeXKlEZNiv7hA6-24" target="l_zz-gCeXKlEZNiv7hA6-16">
          <mxGeometry relative="1" as="geometry">
            <Array as="points">
              <mxPoint x="340" y="255" />
              <mxPoint x="340" y="40" />
              <mxPoint x="530" y="40" />
            </Array>
          </mxGeometry>
        </mxCell>
        <mxCell id="l_zz-gCeXKlEZNiv7hA6-96" style="edgeStyle=orthogonalEdgeStyle;rounded=0;orthogonalLoop=1;jettySize=auto;html=1;entryX=0.341;entryY=-0.01;entryDx=0;entryDy=0;entryPerimeter=0;" edge="1" parent="1" source="l_zz-gCeXKlEZNiv7hA6-20" target="l_zz-gCeXKlEZNiv7hA6-32">
          <mxGeometry relative="1" as="geometry" />
        </mxCell>
        <mxCell id="l_zz-gCeXKlEZNiv7hA6-105" style="edgeStyle=orthogonalEdgeStyle;rounded=0;orthogonalLoop=1;jettySize=auto;html=1;entryX=0;entryY=0.5;entryDx=0;entryDy=0;" edge="1" parent="1" source="l_zz-gCeXKlEZNiv7hA6-50" target="l_zz-gCeXKlEZNiv7hA6-72">
          <mxGeometry relative="1" as="geometry" />
        </mxCell>
        <mxCell id="l_zz-gCeXKlEZNiv7hA6-110" value="&lt;div&gt;IFrameHandler&lt;/div&gt;" style="swimlane;fontStyle=1;align=center;verticalAlign=top;childLayout=stackLayout;horizontal=1;startSize=26;horizontalStack=0;resizeParent=1;resizeParentMax=0;resizeLast=0;collapsible=1;marginBottom=0;whiteSpace=wrap;html=1;" vertex="1" parent="1">
          <mxGeometry x="700" y="190" width="160" height="86" as="geometry" />
        </mxCell>
        <mxCell id="l_zz-gCeXKlEZNiv7hA6-112" value="" style="line;strokeWidth=1;fillColor=none;align=left;verticalAlign=middle;spacingTop=-1;spacingLeft=3;spacingRight=3;rotatable=0;labelPosition=right;points=[];portConstraint=eastwest;strokeColor=inherit;" vertex="1" parent="l_zz-gCeXKlEZNiv7hA6-110">
          <mxGeometry y="26" width="160" height="8" as="geometry" />
        </mxCell>
        <mxCell id="l_zz-gCeXKlEZNiv7hA6-113" value="+ init" style="text;strokeColor=none;fillColor=none;align=left;verticalAlign=top;spacingLeft=4;spacingRight=4;overflow=hidden;rotatable=0;points=[[0,0.5],[1,0.5]];portConstraint=eastwest;whiteSpace=wrap;html=1;" vertex="1" parent="l_zz-gCeXKlEZNiv7hA6-110">
          <mxGeometry y="34" width="160" height="26" as="geometry" />
        </mxCell>
        <mxCell id="l_zz-gCeXKlEZNiv7hA6-179" value="+ handle" style="text;strokeColor=none;fillColor=none;align=left;verticalAlign=top;spacingLeft=4;spacingRight=4;overflow=hidden;rotatable=0;points=[[0,0.5],[1,0.5]];portConstraint=eastwest;whiteSpace=wrap;html=1;" vertex="1" parent="l_zz-gCeXKlEZNiv7hA6-110">
          <mxGeometry y="60" width="160" height="26" as="geometry" />
        </mxCell>
        <mxCell id="l_zz-gCeXKlEZNiv7hA6-114" value="IConfiguration" style="swimlane;fontStyle=1;align=center;verticalAlign=top;childLayout=stackLayout;horizontal=1;startSize=26;horizontalStack=0;resizeParent=1;resizeParentMax=0;resizeLast=0;collapsible=1;marginBottom=0;whiteSpace=wrap;html=1;" vertex="1" parent="1">
          <mxGeometry x="1180" y="180" width="160" height="186" as="geometry" />
        </mxCell>
        <mxCell id="l_zz-gCeXKlEZNiv7hA6-115" value="- std::map&amp;lt;string, string&amp;gt;" style="text;strokeColor=none;fillColor=none;align=left;verticalAlign=top;spacingLeft=4;spacingRight=4;overflow=hidden;rotatable=0;points=[[0,0.5],[1,0.5]];portConstraint=eastwest;whiteSpace=wrap;html=1;" vertex="1" parent="l_zz-gCeXKlEZNiv7hA6-114">
          <mxGeometry y="26" width="160" height="26" as="geometry" />
        </mxCell>
        <mxCell id="l_zz-gCeXKlEZNiv7hA6-116" value="" style="line;strokeWidth=1;fillColor=none;align=left;verticalAlign=middle;spacingTop=-1;spacingLeft=3;spacingRight=3;rotatable=0;labelPosition=right;points=[];portConstraint=eastwest;strokeColor=inherit;" vertex="1" parent="l_zz-gCeXKlEZNiv7hA6-114">
          <mxGeometry y="52" width="160" height="8" as="geometry" />
        </mxCell>
        <mxCell id="l_zz-gCeXKlEZNiv7hA6-117" value="+ init()" style="text;strokeColor=none;fillColor=none;align=left;verticalAlign=top;spacingLeft=4;spacingRight=4;overflow=hidden;rotatable=0;points=[[0,0.5],[1,0.5]];portConstraint=eastwest;whiteSpace=wrap;html=1;" vertex="1" parent="l_zz-gCeXKlEZNiv7hA6-114">
          <mxGeometry y="60" width="160" height="26" as="geometry" />
        </mxCell>
        <mxCell id="l_zz-gCeXKlEZNiv7hA6-146" value="+ read()" style="text;strokeColor=none;fillColor=none;align=left;verticalAlign=top;spacingLeft=4;spacingRight=4;overflow=hidden;rotatable=0;points=[[0,0.5],[1,0.5]];portConstraint=eastwest;whiteSpace=wrap;html=1;" vertex="1" parent="l_zz-gCeXKlEZNiv7hA6-114">
          <mxGeometry y="86" width="160" height="26" as="geometry" />
        </mxCell>
        <mxCell id="l_zz-gCeXKlEZNiv7hA6-128" value="+ write()" style="text;strokeColor=none;fillColor=none;align=left;verticalAlign=top;spacingLeft=4;spacingRight=4;overflow=hidden;rotatable=0;points=[[0,0.5],[1,0.5]];portConstraint=eastwest;whiteSpace=wrap;html=1;" vertex="1" parent="l_zz-gCeXKlEZNiv7hA6-114">
          <mxGeometry y="112" width="160" height="26" as="geometry" />
        </mxCell>
        <mxCell id="l_zz-gCeXKlEZNiv7hA6-130" value="+ std::map&amp;lt;&amp;gt; getDataSettings()" style="text;strokeColor=none;fillColor=none;align=left;verticalAlign=top;spacingLeft=4;spacingRight=4;overflow=hidden;rotatable=0;points=[[0,0.5],[1,0.5]];portConstraint=eastwest;whiteSpace=wrap;html=1;" vertex="1" parent="l_zz-gCeXKlEZNiv7hA6-114">
          <mxGeometry y="138" width="160" height="48" as="geometry" />
        </mxCell>
        <mxCell id="l_zz-gCeXKlEZNiv7hA6-118" value="&lt;div&gt;IWritter&lt;/div&gt;" style="swimlane;fontStyle=1;align=center;verticalAlign=top;childLayout=stackLayout;horizontal=1;startSize=26;horizontalStack=0;resizeParent=1;resizeParentMax=0;resizeLast=0;collapsible=1;marginBottom=0;whiteSpace=wrap;html=1;" vertex="1" parent="1">
          <mxGeometry x="960" y="180" width="160" height="86" as="geometry" />
        </mxCell>
        <mxCell id="l_zz-gCeXKlEZNiv7hA6-120" value="" style="line;strokeWidth=1;fillColor=none;align=left;verticalAlign=middle;spacingTop=-1;spacingLeft=3;spacingRight=3;rotatable=0;labelPosition=right;points=[];portConstraint=eastwest;strokeColor=inherit;" vertex="1" parent="l_zz-gCeXKlEZNiv7hA6-118">
          <mxGeometry y="26" width="160" height="8" as="geometry" />
        </mxCell>
        <mxCell id="l_zz-gCeXKlEZNiv7hA6-121" value="+ init" style="text;strokeColor=none;fillColor=none;align=left;verticalAlign=top;spacingLeft=4;spacingRight=4;overflow=hidden;rotatable=0;points=[[0,0.5],[1,0.5]];portConstraint=eastwest;whiteSpace=wrap;html=1;" vertex="1" parent="l_zz-gCeXKlEZNiv7hA6-118">
          <mxGeometry y="34" width="160" height="26" as="geometry" />
        </mxCell>
        <mxCell id="l_zz-gCeXKlEZNiv7hA6-145" value="+ write" style="text;strokeColor=none;fillColor=none;align=left;verticalAlign=top;spacingLeft=4;spacingRight=4;overflow=hidden;rotatable=0;points=[[0,0.5],[1,0.5]];portConstraint=eastwest;whiteSpace=wrap;html=1;" vertex="1" parent="l_zz-gCeXKlEZNiv7hA6-118">
          <mxGeometry y="60" width="160" height="26" as="geometry" />
        </mxCell>
        <mxCell id="l_zz-gCeXKlEZNiv7hA6-124" style="edgeStyle=orthogonalEdgeStyle;rounded=0;orthogonalLoop=1;jettySize=auto;html=1;entryX=0.5;entryY=0;entryDx=0;entryDy=0;" edge="1" parent="1" source="l_zz-gCeXKlEZNiv7hA6-72" target="l_zz-gCeXKlEZNiv7hA6-16">
          <mxGeometry relative="1" as="geometry">
            <Array as="points">
              <mxPoint x="630" y="427" />
              <mxPoint x="660" y="427" />
              <mxPoint x="660" y="150" />
              <mxPoint x="530" y="150" />
            </Array>
          </mxGeometry>
        </mxCell>
        <mxCell id="l_zz-gCeXKlEZNiv7hA6-125" style="edgeStyle=orthogonalEdgeStyle;rounded=0;orthogonalLoop=1;jettySize=auto;html=1;entryX=0.5;entryY=0;entryDx=0;entryDy=0;" edge="1" parent="1" source="l_zz-gCeXKlEZNiv7hA6-76" target="l_zz-gCeXKlEZNiv7hA6-110">
          <mxGeometry relative="1" as="geometry" />
        </mxCell>
        <mxCell id="l_zz-gCeXKlEZNiv7hA6-126" style="edgeStyle=orthogonalEdgeStyle;rounded=0;orthogonalLoop=1;jettySize=auto;html=1;entryX=0.5;entryY=0;entryDx=0;entryDy=0;" edge="1" parent="1" source="l_zz-gCeXKlEZNiv7hA6-80" target="l_zz-gCeXKlEZNiv7hA6-118">
          <mxGeometry relative="1" as="geometry" />
        </mxCell>
        <mxCell id="l_zz-gCeXKlEZNiv7hA6-127" style="edgeStyle=orthogonalEdgeStyle;rounded=0;orthogonalLoop=1;jettySize=auto;html=1;entryX=0.5;entryY=0;entryDx=0;entryDy=0;" edge="1" parent="1" source="l_zz-gCeXKlEZNiv7hA6-84" target="l_zz-gCeXKlEZNiv7hA6-114">
          <mxGeometry relative="1" as="geometry">
            <mxPoint x="1270" y="350" as="targetPoint" />
          </mxGeometry>
        </mxCell>
        <mxCell id="l_zz-gCeXKlEZNiv7hA6-159" style="edgeStyle=orthogonalEdgeStyle;rounded=0;orthogonalLoop=1;jettySize=auto;html=1;entryX=0;entryY=0.5;entryDx=0;entryDy=0;" edge="1" parent="1" source="l_zz-gCeXKlEZNiv7hA6-132" target="l_zz-gCeXKlEZNiv7hA6-147">
          <mxGeometry relative="1" as="geometry" />
        </mxCell>
        <mxCell id="l_zz-gCeXKlEZNiv7hA6-132" value="&lt;div&gt;&lt;span style=&quot;background-color: transparent; color: light-dark(rgb(0, 0, 0), rgb(255, 255, 255));&quot;&gt;AdaptiveFrameHandlerFactory Impl&lt;/span&gt;&lt;/div&gt;" style="swimlane;fontStyle=1;align=center;verticalAlign=top;childLayout=stackLayout;horizontal=1;startSize=21;horizontalStack=0;resizeParent=1;resizeParentMax=0;resizeLast=0;collapsible=1;marginBottom=0;whiteSpace=wrap;html=1;" vertex="1" parent="1">
          <mxGeometry x="320" y="711.5" width="250" height="55" as="geometry" />
        </mxCell>
        <mxCell id="l_zz-gCeXKlEZNiv7hA6-133" value="" style="line;strokeWidth=1;fillColor=none;align=left;verticalAlign=middle;spacingTop=-1;spacingLeft=3;spacingRight=3;rotatable=0;labelPosition=right;points=[];portConstraint=eastwest;strokeColor=inherit;" vertex="1" parent="l_zz-gCeXKlEZNiv7hA6-132">
          <mxGeometry y="21" width="250" height="8" as="geometry" />
        </mxCell>
        <mxCell id="l_zz-gCeXKlEZNiv7hA6-134" value="+ makeSvc()" style="text;strokeColor=none;fillColor=none;align=left;verticalAlign=top;spacingLeft=4;spacingRight=4;overflow=hidden;rotatable=0;points=[[0,0.5],[1,0.5]];portConstraint=eastwest;whiteSpace=wrap;html=1;" vertex="1" parent="l_zz-gCeXKlEZNiv7hA6-132">
          <mxGeometry y="29" width="250" height="26" as="geometry" />
        </mxCell>
        <mxCell id="l_zz-gCeXKlEZNiv7hA6-140" value="" style="curved=1;endArrow=classic;html=1;rounded=0;" edge="1" parent="1">
          <mxGeometry width="50" height="50" relative="1" as="geometry">
            <mxPoint x="-171.06656901041666" y="1010" as="sourcePoint" />
            <mxPoint x="1540.800048828125" y="542" as="targetPoint" />
            <Array as="points">
              <mxPoint x="180" y="542" />
              <mxPoint x="260" y="502" />
              <mxPoint x="340" y="502" />
              <mxPoint x="400" y="472" />
              <mxPoint x="510" y="512" />
              <mxPoint x="900" y="482" />
            </Array>
          </mxGeometry>
        </mxCell>
        <mxCell id="l_zz-gCeXKlEZNiv7hA6-151" style="edgeStyle=orthogonalEdgeStyle;rounded=0;orthogonalLoop=1;jettySize=auto;html=1;" edge="1" parent="1" source="l_zz-gCeXKlEZNiv7hA6-147" target="l_zz-gCeXKlEZNiv7hA6-110">
          <mxGeometry relative="1" as="geometry">
            <mxPoint x="780" y="480" as="targetPoint" />
            <Array as="points">
              <mxPoint x="820" y="400" />
              <mxPoint x="820" y="400" />
            </Array>
          </mxGeometry>
        </mxCell>
        <mxCell id="l_zz-gCeXKlEZNiv7hA6-147" value="&lt;div&gt;&lt;span style=&quot;background-color: transparent; color: light-dark(rgb(0, 0, 0), rgb(255, 255, 255));&quot;&gt;AdaptiveFrameHandleImpl&lt;/span&gt;&lt;/div&gt;" style="swimlane;fontStyle=1;align=center;verticalAlign=top;childLayout=stackLayout;horizontal=1;startSize=26;horizontalStack=0;resizeParent=1;resizeParentMax=0;resizeLast=0;collapsible=1;marginBottom=0;whiteSpace=wrap;html=1;" vertex="1" parent="1">
          <mxGeometry x="640" y="722" width="216" height="34" as="geometry" />
        </mxCell>
        <mxCell id="l_zz-gCeXKlEZNiv7hA6-148" value="" style="line;strokeWidth=1;fillColor=none;align=left;verticalAlign=middle;spacingTop=-1;spacingLeft=3;spacingRight=3;rotatable=0;labelPosition=right;points=[];portConstraint=eastwest;strokeColor=inherit;" vertex="1" parent="l_zz-gCeXKlEZNiv7hA6-147">
          <mxGeometry y="26" width="216" height="8" as="geometry" />
        </mxCell>
        <mxCell id="l_zz-gCeXKlEZNiv7hA6-157" style="edgeStyle=orthogonalEdgeStyle;rounded=0;orthogonalLoop=1;jettySize=auto;html=1;entryX=1;entryY=0.25;entryDx=0;entryDy=0;" edge="1" parent="1" source="l_zz-gCeXKlEZNiv7hA6-156" target="l_zz-gCeXKlEZNiv7hA6-38">
          <mxGeometry relative="1" as="geometry">
            <mxPoint x="220" y="510" as="targetPoint" />
            <Array as="points">
              <mxPoint x="240" y="720" />
              <mxPoint x="240" y="475" />
            </Array>
          </mxGeometry>
        </mxCell>
        <mxCell id="l_zz-gCeXKlEZNiv7hA6-156" value="FrameHandlersImpl" style="shape=umlFrame;whiteSpace=wrap;html=1;pointerEvents=0;width=160;height=30;" vertex="1" parent="1">
          <mxGeometry x="250" y="620" width="320" height="200" as="geometry" />
        </mxCell>
        <mxCell id="l_zz-gCeXKlEZNiv7hA6-170" style="edgeStyle=orthogonalEdgeStyle;rounded=0;orthogonalLoop=1;jettySize=auto;html=1;" edge="1" parent="1" source="l_zz-gCeXKlEZNiv7hA6-161" target="l_zz-gCeXKlEZNiv7hA6-32">
          <mxGeometry relative="1" as="geometry" />
        </mxCell>
        <mxCell id="l_zz-gCeXKlEZNiv7hA6-161" value="ConfigurationFactoryImpl" style="shape=umlFrame;whiteSpace=wrap;html=1;pointerEvents=0;width=170;height=30;" vertex="1" parent="1">
          <mxGeometry x="250" y="950" width="300" height="200" as="geometry" />
        </mxCell>
        <mxCell id="l_zz-gCeXKlEZNiv7hA6-169" value="" style="edgeStyle=orthogonalEdgeStyle;rounded=0;orthogonalLoop=1;jettySize=auto;html=1;" edge="1" parent="1" source="l_zz-gCeXKlEZNiv7hA6-162" target="l_zz-gCeXKlEZNiv7hA6-166">
          <mxGeometry relative="1" as="geometry" />
        </mxCell>
        <mxCell id="l_zz-gCeXKlEZNiv7hA6-162" value="&lt;span style=&quot;text-align: left;&quot;&gt;DefaultConfiguartionFactory Imp&lt;/span&gt;" style="swimlane;fontStyle=1;align=center;verticalAlign=top;childLayout=stackLayout;horizontal=1;startSize=26;horizontalStack=0;resizeParent=1;resizeParentMax=0;resizeLast=0;collapsible=1;marginBottom=0;whiteSpace=wrap;html=1;" vertex="1" parent="1">
          <mxGeometry x="300" y="1070" width="230" height="60" as="geometry" />
        </mxCell>
        <mxCell id="l_zz-gCeXKlEZNiv7hA6-163" value="" style="line;strokeWidth=1;fillColor=none;align=left;verticalAlign=middle;spacingTop=-1;spacingLeft=3;spacingRight=3;rotatable=0;labelPosition=right;points=[];portConstraint=eastwest;strokeColor=inherit;" vertex="1" parent="l_zz-gCeXKlEZNiv7hA6-162">
          <mxGeometry y="26" width="230" height="8" as="geometry" />
        </mxCell>
        <mxCell id="l_zz-gCeXKlEZNiv7hA6-164" value="+ makeSvc()" style="text;strokeColor=none;fillColor=none;align=left;verticalAlign=top;spacingLeft=4;spacingRight=4;overflow=hidden;rotatable=0;points=[[0,0.5],[1,0.5]];portConstraint=eastwest;whiteSpace=wrap;html=1;" vertex="1" parent="l_zz-gCeXKlEZNiv7hA6-162">
          <mxGeometry y="34" width="230" height="26" as="geometry" />
        </mxCell>
        <mxCell id="l_zz-gCeXKlEZNiv7hA6-171" style="edgeStyle=orthogonalEdgeStyle;rounded=0;orthogonalLoop=1;jettySize=auto;html=1;" edge="1" parent="1" source="l_zz-gCeXKlEZNiv7hA6-166" target="l_zz-gCeXKlEZNiv7hA6-114">
          <mxGeometry relative="1" as="geometry" />
        </mxCell>
        <mxCell id="l_zz-gCeXKlEZNiv7hA6-166" value="&lt;span style=&quot;text-align: left;&quot;&gt;DefaultConfiguartionImpl&lt;/span&gt;" style="swimlane;fontStyle=1;align=center;verticalAlign=top;childLayout=stackLayout;horizontal=1;startSize=26;horizontalStack=0;resizeParent=1;resizeParentMax=0;resizeLast=0;collapsible=1;marginBottom=0;whiteSpace=wrap;html=1;" vertex="1" parent="1">
          <mxGeometry x="1170" y="748" width="230" height="34" as="geometry" />
        </mxCell>
        <mxCell id="l_zz-gCeXKlEZNiv7hA6-167" value="" style="line;strokeWidth=1;fillColor=none;align=left;verticalAlign=middle;spacingTop=-1;spacingLeft=3;spacingRight=3;rotatable=0;labelPosition=right;points=[];portConstraint=eastwest;strokeColor=inherit;" vertex="1" parent="l_zz-gCeXKlEZNiv7hA6-166">
          <mxGeometry y="26" width="230" height="8" as="geometry" />
        </mxCell>
      </root>
    </mxGraphModel>
  </diagram>
</mxfile>
